<?xml version="1.0" standalone="no"?>
<!DOCTYPE svg PUBLIC "-//W3C//DTD SVG 20010904//EN"
 "http://www.w3.org/TR/2001/REC-SVG-20010904/DTD/svg10.dtd">
<svg version="1.0" xmlns="http://www.w3.org/2000/svg"
 width="512.000000pt" height="512.000000pt" viewBox="0 0 512.000000 512.000000"
 preserveAspectRatio="xMidYMid meet">

<g transform="translate(0.000000,512.000000) scale(0.100000,-0.100000)"
fill="#000000" stroke="none">
<path d="M0 2560 l0 -2560 2560 0 2560 0 0 2560 0 2560 -2560 0 -2560 0 0
-2560z m4438 1893 c-10 -2 -28 -2 -40 0 -13 2 -5 4 17 4 22 1 32 -1 23 -4z
m630 -87 c10 -6 35 -2822 30 -3361 l-3 -360 -360 0 c-3018 1 -4606 7 -4610 18
-2 7 -6 843 -10 1859 l-6 1848 348 3 c539 5 4601 -1 4611 -7z"/>
<path d="M216 4243 c-3 -3 -3 -124 0 -267 4 -144 9 -925 13 -1736 l6 -1475
2382 -3 c1310 -1 2384 1 2387 6 5 9 -11 2292 -22 3020 l-7 454 -2376 3 c-1307
3 -2379 1 -2383 -2z m4656 -111 c12 -12 28 -1360 28 -2359 l0 -913 -207 -1
c-596 -2 -3039 5 -3645 10 l-696 6 -6 1330 c-3 732 -7 1465 -8 1630 l-3 300
375 5 c560 7 4154 0 4162 -8z"/>
<path d="M449 4028 c-14 -12 -15 -54 -8 -433 4 -231 8 -914 9 -1518 1 -833 4
-1099 13 -1102 7 -2 983 -6 2170 -9 2035 -6 2158 -5 2164 11 10 25 -17 3036
-27 3048 -6 7 -692 12 -2157 14 -1766 2 -2151 0 -2164 -11z m4229 -103 c6 -6
11 -577 13 -1438 l4 -1429 -1060 4 c-583 1 -1513 3 -2068 3 -554 0 -1007 2
-1007 5 0 3 -2 478 -5 1055 -3 578 -7 1222 -11 1433 l-5 384 2065 -4 c1360 -2
2068 -6 2074 -13z"/>
<path d="M645 3819 c-4 -6 -4 -106 -1 -222 3 -117 9 -709 12 -1317 3 -608 8
-1107 10 -1109 5 -6 522 -8 2314 -10 872 0 1591 -1 1599 -1 11 0 12 148 6 932
-4 513 -9 1109 -10 1323 -1 215 -3 396 -4 403 -1 16 -3916 18 -3926 1z m3831
-92 c4 -4 10 -563 12 -1242 l5 -1235 -59 0 c-1047 -6 -3675 4 -3685 14 0 1 -3
554 -6 1230 -4 1011 -2 1230 9 1237 16 11 3714 7 3724 -4z"/>
</g>
</svg>
